<?xml version="1.0" standalone="no"?>
<!DOCTYPE svg PUBLIC "-//W3C//DTD SVG 20010904//EN"
 "http://www.w3.org/TR/2001/REC-SVG-20010904/DTD/svg10.dtd">
<svg version="1.0" xmlns="http://www.w3.org/2000/svg"
 width="720.000000pt" height="720.000000pt" viewBox="0 0 720.000000 720.000000"
 preserveAspectRatio="xMidYMid meet">
<metadata>
Created by potrace 1.11, written by Peter Selinger 2001-2013
</metadata>
<g transform="translate(0.000000,720.000000) scale(0.100000,-0.100000)"
fill="#000000" stroke="none">
<path d="M3388 7195 c-1 -2 -41 -6 -88 -9 -556 -35 -1190 -254 -1677 -580
-172 -115 -164 -109 -283 -205 -540 -436 -949 -1027 -1159 -1674 -56 -172
-107 -376 -127 -502 -3 -22 -8 -47 -9 -55 -2 -8 -6 -40 -10 -70 -4 -30 -9 -66
-11 -80 -25 -159 -25 -682 0 -840 3 -14 7 -47 11 -75 5 -43 17 -122 30 -190
76 -416 251 -855 494 -1240 464 -737 1209 -1296 2043 -1534 140 -39 320 -80
423 -95 17 -2 48 -7 70 -11 136 -20 289 -30 505 -29 254 0 376 8 565 38 11 2
40 7 65 11 257 40 667 171 915 293 49 24 99 48 110 53 11 5 27 13 35 18 8 6
49 29 90 52 115 64 316 199 427 286 489 381 846 845 1108 1438 47 106 146 392
159 459 3 12 12 48 21 81 18 69 60 284 70 365 24 185 30 289 30 520 -1 255 -8
342 -46 580 -11 69 -24 141 -29 160 -5 19 -17 67 -26 105 -65 278 -203 627
-355 897 -396 705 -1043 1276 -1784 1573 -187 75 -413 147 -550 175 -229 46
-291 56 -475 76 -55 6 -537 14 -542 9z"/>
</g>
</svg>
